<svg width="16" height="16" viewBox="0 0 16 16" fill="none" xmlns="http://www.w3.org/2000/svg">
<g id="Line/delete">
<g id="Icon">
<path fill-rule="evenodd" clip-rule="evenodd" d="M2.45473 3.50205C2.72974 3.47705 2.97295 3.67972 2.99795 3.95473L3.91527 14.0453C3.93868 14.3028 4.15461 14.5 4.41321 14.5H11.5868C11.8454 14.5 12.0613 14.3028 12.0847 14.0453L13.0021 3.95473C13.0271 3.67972 13.2703 3.47705 13.5453 3.50205C13.8203 3.52705 14.0229 3.77026 13.9979 4.04527L13.0806 14.1358C13.0104 14.9084 12.3626 15.5 11.5868 15.5H4.41321C3.63741 15.5 2.98961 14.9084 2.91937 14.1358L2.00205 4.04527C1.97705 3.77026 2.17972 3.52705 2.45473 3.50205Z" fill="#0056B6"/>
<path fill-rule="evenodd" clip-rule="evenodd" d="M10.5 5.5C10.7761 5.5 11 5.72386 11 6V12C11 12.2761 10.7761 12.5 10.5 12.5C10.2239 12.5 10 12.2761 10 12V6C10 5.72386 10.2239 5.5 10.5 5.5Z" fill="#0056B6"/>
<path fill-rule="evenodd" clip-rule="evenodd" d="M8 5.5C8.27614 5.5 8.5 5.72386 8.5 6L8.5 12C8.5 12.2761 8.27614 12.5 8 12.5C7.72385 12.5 7.5 12.2761 7.5 12L7.5 6C7.5 5.72386 7.72385 5.5 8 5.5Z" fill="#0056B6"/>
<path fill-rule="evenodd" clip-rule="evenodd" d="M5.5 5.5C5.77614 5.5 6 5.72386 6 6L6 12C6 12.2761 5.77614 12.5 5.5 12.5C5.22385 12.5 5 12.2761 5 12L5 6C5 5.72386 5.22385 5.5 5.5 5.5Z" fill="#0056B6"/>
<path fill-rule="evenodd" clip-rule="evenodd" d="M5 2C5 1.17157 5.67157 0.5 6.5 0.5H9.5C10.3284 0.5 11 1.17157 11 2V3C11 3.27614 10.7761 3.5 10.5 3.5C10.2239 3.5 10 3.27614 10 3V2C10 1.72386 9.77614 1.5 9.5 1.5H6.5C6.22386 1.5 6 1.72386 6 2V3C6 3.27614 5.77614 3.5 5.5 3.5C5.22386 3.5 5 3.27614 5 3V2Z" fill="#0056B6"/>
<path fill-rule="evenodd" clip-rule="evenodd" d="M2.47321 4.16189C2.40593 4.35858 2.21948 4.5 2 4.5C1.72386 4.5 1.5 4.27614 1.5 4C1.5 3.7126 1.67528 3.51736 1.80614 3.41078C1.94322 3.29914 2.11491 3.21385 2.28821 3.14557C2.63977 3.00704 3.11897 2.89239 3.67516 2.7997C4.79557 2.61296 6.32437 2.5 8 2.5C9.67563 2.5 11.2044 2.61296 12.3248 2.7997C12.881 2.89239 13.3602 3.00704 13.7118 3.14557C13.8851 3.21385 14.0568 3.29914 14.1939 3.41078C14.3247 3.51736 14.5 3.7126 14.5 4C14.5 4.27614 14.2761 4.5 14 4.5C13.7805 4.5 13.5941 4.35858 13.5268 4.1619C13.4916 4.14057 13.4337 4.1108 13.3452 4.07594C13.0895 3.9752 12.69 3.87436 12.1604 3.78609C11.1093 3.6109 9.63807 3.5 8 3.5C6.36193 3.5 4.89072 3.6109 3.83956 3.78609C3.30996 3.87436 2.91048 3.9752 2.65481 4.07594C2.56635 4.1108 2.50842 4.14057 2.47321 4.16189Z" fill="#0056B6"/>
</g>
</g>
</svg>
