<svg
  xmlns="http://www.w3.org/2000/svg"
  width="24"
  height="24"
  viewBox="0 0 24 24"
  fill="none"
>
  <path
    fill-rule="evenodd"
    clip-rule="evenodd"
    d="M19.4866 10.4866H13.514V4.51291C13.5141 3.67862 12.8351 3 12 3C11.1649 3 10.486 3.67862 10.486 4.51291V10.4866H4.51403C3.6792 10.4866 3 11.1658 3 12C3 12.834 3.67894 13.5129 4.51403 13.5129H10.486V19.4866C10.486 20.3211 11.1646 21 12 21C12.8351 21 13.514 20.3211 13.514 19.4866V13.5129H19.4866C20.3211 13.5129 21 12.834 21 12C21.0001 11.1658 20.3211 10.4866 19.4866 10.4866Z"
    fill="#0056B6"
  />
</svg>
